<svg xmlns="http://www.w3.org/2000/svg" viewBox="0 0 100 100">
    <title>Craft AI</title>
    <g fill="currentColor" fill-rule="evenodd" transform="translate(50 0) scale(0.8 1) translate(-50 0)">
        <path d="M49 6C46 4 40 4 36 10C28 12 20 18 16 26C10 30 4 42 10 50C4 58 8 72 14 78C18 88 30 94 42 94C46 94 49 92 49 90ZM46 14C38 20 32 8 28 16C32 12 38 18 46 16ZM40 22C32 24 26 36 16 38C22 36 32 28 40 24ZM30 32C24 40 32 50 28 56C34 50 26 40 30 34ZM46 48C32 56 18 44 8 52C22 50 32 56 46 52ZM24 60C30 66 38 74 44 80C38 78 28 70 22 62ZM16 64C12 70 22 76 18 80C24 76 14 70 16 66Z"/>
        <path d="M51 6C54 4 60 4 64 10C72 12 80 18 84 26C90 30 96 42 90 50C96 58 92 72 86 78C82 88 70 94 58 94C54 94 51 92 51 90ZM54 14C62 20 68 8 72 16C68 12 62 18 54 16ZM60 22C68 24 74 36 84 38C78 36 68 28 60 24ZM70 32C76 40 68 50 72 56C66 50 74 40 70 34ZM54 48C68 56 82 44 92 52C78 50 68 56 54 52ZM76 60C70 66 62 74 56 80C62 78 72 70 78 62ZM84 64C88 70 78 76 82 80C76 76 86 70 84 66Z"/>
    </g>
</svg>
