<svg width="400" height="400" viewBox="0 0 400 400" fill="none" xmlns="http://www.w3.org/2000/svg">
<path d="M10 30C10 18.9543 18.9543 10 30 10H198V390H30C18.9543 390 10 381.046 10 370V30Z" fill="#E5422B"/>
<path d="M202 10H370C381.046 10 390 18.9543 390 30V370C390 381.046 381.046 390 370 390H202V10Z" fill="#E5422B"/>
<path d="M97.5852 291H44.3182L134.517 109.182H201.989L231.818 291H178.551L160.795 159.253H159.375L97.5852 291ZM99.7159 219.267H199.858L193.466 256.199H93.3239L99.7159 219.267ZM328.875 109.182L298.691 291H249.33L279.514 109.182H328.875Z" fill="white"/>
<path d="M50.25 11V102L66.5 118.25M82.75 134.5V176L111 204.25M82.75 134.5L66.5 118.25M82.75 134.5V80L112.75 50V11M139.25 389V232.5L111 204.25M66.5 118.25V64.625M66.5 11V64.625M66.5 64.625L85.125 46V11M111 204.25V111.5L126.75 95.75L142.5 80V11M175.25 389V306L160.75 291.5V83.5M160.75 11V83.5M160.75 83.5L185.75 58.5V11M99.25 389V261.5L66.5 228.75V193L29.25 155.75V11M66.5 389V313L42.75 289.25M19 265.5L42.75 289.25M42.75 289.25V251L19 227.25" stroke="white" stroke-opacity="0.5" stroke-width="4"/>
<path d="M348.5 11V102L332.25 118.25M316 134.5V176L287.75 204.25M316 134.5L332.25 118.25M316 134.5V80L286 50V11M259.5 389V232.5L287.75 204.25M332.25 118.25V64.625M332.25 11V64.625M332.25 64.625L313.625 46V11M287.75 204.25V111.5L272 95.75L256.25 80V11M223.5 389V306L238 291.5V83.5M238 11V83.5M238 83.5L213 58.5V11M299.5 389V261.5L332.25 228.75V193L369.5 155.75V11M332.25 389V313L356 289.25M379.75 265.5L356 289.25M356 289.25V251L379.75 227.25" stroke="white" stroke-opacity="0.5" stroke-width="4"/>
</svg>
